M48
; DRILL file KiCad 10.0.4 date 2026-07-21T11:54:24
; FORMAT={-:-/ absolute / metric / decimal}
; #@! TF.CreationDate,2026-07-21T11:54:24+03:30
; #@! TF.GenerationSoftware,Kicad,Pcbnew,10.0.4
; #@! TF.FileFunction,MixedPlating,1,2
FMAT,2
METRIC
; #@! TA.AperFunction,Plated,PTH,ComponentDrill
T1C0.200
; #@! TA.AperFunction,Plated,PTH,ViaDrill
T2C0.300
; #@! TA.AperFunction,Plated,PTH,ComponentDrill
T3C0.600
; #@! TA.AperFunction,NonPlated,NPTH,ComponentDrill
T4C0.650
%
G90
G05
T1
X121.545Y-84.26
X121.545Y-85.66
X122.245Y-83.56
X122.245Y-84.96
X122.245Y-86.36
X122.945Y-84.26
X122.945Y-85.66
X123.645Y-83.56
X123.645Y-84.96
X123.645Y-86.36
X124.345Y-84.26
X124.345Y-85.66
T2
X118.0Y-79.0
X118.0Y-119.0
X121.0Y-79.0
X122.0Y-119.0
X125.0Y-116.0
X129.0Y-125.0
T4
X121.555Y-128.445
X127.335Y-128.445
T3
G00X120.125Y-127.395
M15
G01X120.125Y-128.495
M16
G05
G00X120.125Y-131.725
M15
G01X120.125Y-132.525
M16
G05
G00X128.765Y-127.395
M15
G01X128.765Y-128.495
M16
G05
G00X128.765Y-131.725
M15
G01X128.765Y-132.525
M16
G05
M30
